<?xml version="1.0" encoding="utf-8"?>
<!-- Generator: Adobe Illustrator 24.1.2, SVG Export Plug-In . SVG Version: 6.00 Build 0)  -->
<svg version="1.1" id="Capa_1" xmlns="http://www.w3.org/2000/svg" xmlns:xlink="http://www.w3.org/1999/xlink" x="0px" y="0px"
	 viewBox="0 0 512 512" style="enable-background:new 0 0 512 512;" xml:space="preserve">
<style type="text/css">
	.st0{fill:#7CB3A0;}
	.st1{fill:#F9FCFF;}
	.st2{fill:url(#SVGID_1_);}
	.st3{fill:url(#SVGID_2_);}
	.st4{fill:url(#SVGID_3_);}
</style>
<g>
	<g>
		<circle class="st0" cx="256" cy="256" r="256"/>
	</g>
</g>
<g>
	<path class="st1" d="M214.9,340.6c-16.3-11.6-26.7-29.9-26.7-50.6h0v-135l-36.5-14.8l0,149.9h0c0,54,46.7,97.7,104.4,97.7
		c7.7,0,15.3-0.8,22.5-2.3C238.8,373.5,220,348.7,214.9,340.6z"/>
	
		<linearGradient id="SVGID_1_" gradientUnits="userSpaceOnUse" x1="296.04" y1="373.77" x2="296.04" y2="131.482" gradientTransform="matrix(1 0 0 -1 0 514)">
		<stop  offset="0" style="stop-color:#808184"/>
		<stop  offset="0.3924" style="stop-color:#616163"/>
		<stop  offset="0.7709" style="stop-color:#49494A"/>
		<stop  offset="1" style="stop-color:#404041"/>
	</linearGradient>
	<path class="st2" d="M360.4,140.2l-36.5,14.8v135c0,35.1-30.4,63.6-67.9,63.6c-8.6,0-16.7-1.5-24.3-4.2
		c18,19.9,45.3,29.5,58.2,33.1c41-13.2,70.5-49.6,70.5-92.4h0L360.4,140.2z"/>
</g>
<g>
	<path class="st1" d="M279.4,317.6c9.2-6.6,15.2-17,15.2-28.8l0,0V212l20.7-8.4v85.3l0,0c0,30.7-26.6,55.6-59.4,55.6
		c-4.4,0-8.7-0.5-12.8-1.3C265.8,336.3,276.5,322.2,279.4,317.6z"/>
	
		<linearGradient id="SVGID_2_" gradientUnits="userSpaceOnUse" x1="-866.2854" y1="310.409" x2="-866.2854" y2="172.56" gradientTransform="matrix(-1 0 0 -1 -633.0664 514)">
		<stop  offset="0" style="stop-color:#808184"/>
		<stop  offset="0.3924" style="stop-color:#616163"/>
		<stop  offset="0.7709" style="stop-color:#49494A"/>
		<stop  offset="1" style="stop-color:#404041"/>
	</linearGradient>
	<path class="st3" d="M196.6,203.6l20.8,8.4v76.8c0,20,17.3,36.2,38.6,36.2c4.9,0,9.5-0.9,13.8-2.4c-10.2,11.3-25.8,16.8-33.1,18.8
		c-23.3-7.5-40.1-28.2-40.1-52.6l0,0L196.6,203.6L196.6,203.6z"/>
</g>
<g>
	<path class="st1" d="M243.6,303c-4.9-3.5-8.1-9-8.1-15.2l0,0v-40.7l-11-4.5v45.1l0,0c0,16.3,14.1,29.4,31.4,29.4
		c2.3,0,4.6-0.2,6.8-0.7C250.8,312.9,245.2,305.4,243.6,303z"/>
	
		<linearGradient id="SVGID_3_" gradientUnits="userSpaceOnUse" x1="268.0575" y1="271.37" x2="268.0575" y2="198.407" gradientTransform="matrix(1 0 0 -1 0 514)">
		<stop  offset="0" style="stop-color:#808184"/>
		<stop  offset="0.3924" style="stop-color:#616163"/>
		<stop  offset="0.7709" style="stop-color:#49494A"/>
		<stop  offset="1" style="stop-color:#404041"/>
	</linearGradient>
	<path class="st4" d="M287.4,242.6l-11,4.5v40.7c0,10.6-9.2,19.1-20.4,19.1c-2.6,0-5-0.5-7.3-1.3c5.4,6,13.6,8.9,17.5,10
		c12.4-4,21.2-14.9,21.2-27.8h0L287.4,242.6z"/>
</g>
</svg>
